<svg width="378" height="378" viewBox="0 0 378 378" fill="none" xmlns="http://www.w3.org/2000/svg">
<path d="M250.7 0V7H251.336L250.7 8.05762V13.1367L249.592 15.4443L250.349 24.9004L242.109 29.2021L242.016 29.3506L242.749 38.499L234.658 42.7236L234.64 42.7529L235.493 51.8994L227.113 56.2119L227.084 56.2588L226.343 57.6953L226.136 58.0938L226.849 67L218.53 71.3428L218.416 71.5293L219.151 80.5977L211.439 84.624L212.151 93.3984L203.838 97.7402L201.701 101.564V171.54L211.046 160.517L209.629 159.13L306.121 60.4824L318.273 72.3691L233.73 158.8L235.983 160.828L214.077 182.5H377.801V199.5H212.466L317.063 305.592L304.959 317.528L201.701 212.795V377.201H184.701V212.603L146.335 251.273L140.328 267.518L140.765 285.324L134.054 290.131L134.554 314.622L127.763 319.515L128.366 344.121L120.703 349.266L117.944 376.465L105.729 364.822L105.693 364.862L30.5508 292.737L10.8066 274.053L39.0859 268.534L45.0967 261.259L68.3262 260.664L73.9336 253.054L97.3604 252.553L103.061 244.953L123.298 244.52L133.625 239.946L173.755 199.5H101.648L97.6357 201.665L93.2959 210.101L84.5654 209.263L80.4971 217.056L71.5049 216.316L71.209 216.495L66.8994 224.748L57.9844 224.034L57.6611 224.208L56.1895 224.995L51.7568 233.248L42.7607 232.518L42.7061 232.552L38.3574 240.649L29.3301 239.915L29.1846 240.004L24.7568 248.248L17.001 247.618V248.6H7.94434L7.00098 249.165V248.6H0V133.5H7.00098V132.357L8.71484 133.5H13.1387L15.4473 134.608L24.9004 133.852L29.2148 142.113L29.3311 142.185L38.5 141.451L42.7393 149.566L42.7646 149.582L51.9004 148.853L56.2168 157.118L57.6621 157.894L57.9814 158.064L66.8994 157.352L71.21 165.604L71.5059 165.784L80.4551 165.049L84.6348 172.83L93.2539 172.004L97.7207 180.444L101.443 182.5H170.395L134.851 145.717L118.85 139.4H101.078L96.3779 132.6H71.7559L67.0576 125.701H42.4521L37.5654 118.006L10.3418 114.588L22.3545 102.572L22.3252 102.542L88.8525 36.2754L115.197 9.7998L120.027 38.0957L127.2 44.3203V67.5459L134.7 73.3457V96.7666L142.091 102.559L142.175 122.749L146.531 133.341L184.701 172.84V101.596L182.565 97.751L174.104 93.3975L174.934 84.626L167.147 80.6191L167.886 71.5078L167.737 71.2646L166.233 70.4678L164.327 69.7393L164.573 69.5898L159.407 66.8555L160.242 58.0322L160.123 57.8154L159.251 56.2344L150.952 51.8994L151.681 42.7852L151.642 42.7246L143.553 38.499L144.285 29.332L144.212 29.2129L135.952 24.8994L136.709 15.4463L135.601 13.1377V8.04688L134.973 7H135.601V0H250.7ZM102.871 265.531L98.3721 273.031L73.8047 273.63L69.4053 281.13L46.875 281.679L46.8594 284.826L104.707 340.353L107.741 340.284L107.243 320.817L114.05 314.721L113.553 291.508L120.154 285.595L119.744 266.415L118.479 265.15L102.871 265.531ZM17.001 153.925V228.174L22.5977 228.507L25.9062 220.295L36.0801 220.9L39.3076 212.895L49.8008 213.519L50.9668 212.846L54.2393 204.291L64.6846 204.912L67.9883 196.595L77.751 197.176L80.2148 191.063L77.7764 184.924L67.9883 185.507L64.6855 177.192L54.3877 177.806L50.9971 169.271L49.8008 168.58L39.3076 169.205L36.0801 161.198L25.9062 161.805L22.5977 153.592L17.001 153.925ZM174.628 199.5L175.312 200.178C175.229 199.954 175.15 199.728 175.075 199.5H174.628ZM46.8008 102.156V105.201H66.207L72.0908 112.1H95.3818L101.197 118.801H120.365L121.601 117.595V101.948L114.211 97.2539L114.111 72.7549L106.711 68.0557L106.62 45.5742L103.681 45.5L46.8008 102.156ZM156.044 17L155.767 22.7256L163.866 25.9912L163.373 36.209L171.306 39.4072L170.684 49.8545L171.344 50.9561L179.905 54.4072L179.288 64.7559L187.609 67.9395L187.021 77.8125L193.299 80.25L199.303 77.8652L198.838 68.0898L207.032 64.7861L206.538 54.3906L214.998 50.9795L215.62 49.9004L214.996 39.4072L223.001 36.1797L222.396 26.0068L230.608 22.6953L230.27 17H156.044Z" fill="white"/>
</svg>
