<svg width="437" height="420" viewBox="0 0 437 420" fill="none" xmlns="http://www.w3.org/2000/svg">
<path d="M334.264 0.647353C348.857 -2.35023 363.738 5.27726 369.349 19.077L433.937 177.916C435.841 182.598 436.531 187.686 435.943 192.707L412.473 393.035C410.703 408.15 397.895 419.544 382.677 419.544H53.4695C38.2516 419.544 25.4445 408.15 23.6736 393.035L0.203895 192.707C-0.384232 187.686 0.304748 182.598 2.20878 177.916L66.7967 19.077C72.4081 5.27729 87.2893 -2.35006 101.882 0.647353C130.683 6.5638 178.812 15.0438 218.073 15.0438C257.334 15.0438 305.463 6.56381 334.264 0.647353ZM225.313 220C213.866 220 202.952 221.976 192.573 225.927C182.194 229.878 172.959 235.5 164.87 242.794C156.933 250.088 150.599 258.674 145.867 268.552C141.288 278.277 138.999 288.99 138.999 300.691C138.999 311.177 140.983 320.978 144.952 330.096C149.073 339.061 154.721 346.963 161.894 353.802C169.221 360.488 177.616 365.73 187.079 369.529C196.695 373.176 206.998 375 217.987 375C224.55 375 231.495 374.24 238.821 372.721C246.147 371.049 253.093 368.77 259.656 365.883C266.372 362.995 272.019 359.651 276.598 355.852V318.927L293.999 307.985V304.338H221.879V307.985L242.256 318.698V360.64C236.15 361.855 230.274 362.463 224.627 362.463C215.316 362.463 206.844 359.804 199.213 354.485C191.734 349.167 185.782 341.644 181.355 331.919C176.929 322.041 174.716 310.264 174.716 296.588C174.716 283.519 177.005 272.123 181.584 262.397C186.163 252.52 192.344 244.845 200.129 239.375C208.066 233.904 216.766 231.169 226.229 231.169C231.113 231.169 235.463 231.701 239.279 232.765C243.095 233.676 247.14 235.424 251.414 238.008L273.393 271.058H277.285L274.767 230.941C270.341 228.814 265.838 226.914 261.259 225.242C256.832 223.571 251.719 222.279 245.919 221.367C240.271 220.455 233.403 220 225.313 220ZM102.601 72.5224C101.762 67.0638 96.6566 63.3188 91.198 64.1581C85.7397 64.9977 81.9947 70.1031 82.8338 75.5614L94.656 152.434L46.4422 325.863C44.963 331.184 48.0775 336.697 53.3982 338.177C58.7192 339.656 64.2324 336.542 65.7117 331.221L111.654 165.958C117.594 167.862 125.873 170.315 135.935 172.76C157.022 177.884 186.149 183.043 218.073 183.044C249.997 183.045 279.123 177.886 300.21 172.762C310.271 170.317 318.55 167.864 324.489 165.96L370.433 331.223C371.913 336.543 377.425 339.657 382.746 338.179C388.067 336.699 391.181 331.186 389.702 325.865L341.488 152.436L353.31 75.5634C354.15 70.1049 350.405 64.9996 344.947 64.16C339.489 63.3208 334.382 67.0658 333.543 72.5243L322.301 145.626C321.376 145.939 320.34 146.285 319.196 146.656C313.615 148.465 305.5 150.894 295.487 153.327C275.42 158.203 247.942 163.045 218.073 163.044C188.204 163.043 160.726 158.201 140.658 153.325C130.645 150.892 122.53 148.463 116.948 146.654C115.804 146.283 114.768 145.937 113.844 145.624L102.601 72.5224Z" fill="white"/>
</svg>
