<?xml version="1.0" encoding="utf-8"?>
<svg version="1.1" xmlns="http://www.w3.org/2000/svg" xmlns:xlink="http://www.w3.org/1999/xlink"
     viewBox="0 0 468 468" xml:space="preserve">
<g id="Слой_3">
  <g id="Слой_6">
    <polygon fill="#FFFFFF" points="278.5,61.2 274.7,67.2 268,69.9 268.5,78.3 267,80.9 269.6,82.6 271.2,79.7 277.9,76.2 277.3,68.7 281,62.8"/>
    <polygon fill="#FFFFFF" points="271.2,74.6 267.3,80.6 260.6,83.3 261.1,91.7 259.6,94.3 262.3,96 263.8,93.1 270.6,89.6 269.9,82.1 273.7,76.2"/>
    <polygon fill="#FFFFFF" points="282.9,52.6 282.3,53.6 275.6,56.3 276.1,64.7 274.6,67.3 277.2,69 278.8,66.1 285.5,62.6 284.9,55.1 286.1,52.6"/>
    <polygon fill="#FFFFFF" points="262.6,89.6 258.8,95.6 252.1,98.3 252.5,106.7 251.1,109.3 253.7,111 255.3,108.2 262,104.7 261.4,97.2 265.1,91.2"/>
    <polygon fill="#FFFFFF" points="254.9,103.2 251.1,109.3 244.4,112 244.8,120.4 243.4,122.9 246,124.7 247.6,121.8 254.3,118.3 253.7,110.9 257.4,104.9"/>
    <polygon fill="#FFFFFF" points="247.9,116 244.1,122.1 237.3,124.8 237.8,133.1 237,135.4 236.8,141.4 240.6,134.6 247.3,131.1 246.7,123.7 250.4,117.6"/>
    <polygon fill="#FFFFFF" points="188.6,61.1 192.4,67.2 199.1,69.9 198.7,78.2 200.1,80.8 197.5,82.5 195.9,79.7 189.2,76.2 189.8,68.7 186.1,62.7"/>
    <polygon fill="#FFFFFF" points="196,74.5 199.8,80.6 206.5,83.3 206,91.7 207.5,94.2 204.9,96 203.3,93.1 196.6,89.6 197.2,82.1 193.4,76.2"/>
    <polygon fill="#FFFFFF" points="184.2,52.6 184.8,53.6 191.5,56.3 191.1,64.6 192.5,67.2 189.9,68.9 188.3,66.1 181.6,62.6 182.2,55.1 181,52.6"/>
    <polygon fill="#FFFFFF" points="204.5,89.6 208.4,95.6 215.1,98.3 214.6,106.7 216.1,109.3 213.4,111 211.9,108.2 205.1,104.6 205.8,97.2 202,91.2"/>
    <polygon fill="#FFFFFF" points="212.2,103.2 216,109.3 222.8,111.9 222.3,120.3 223.8,122.9 221.1,124.6 219.6,121.8 212.8,118.3 213.4,110.9 209.7,104.8"/>
    <polygon fill="#FFFFFF" points="219.2,116 223.1,122.1 229.8,124.7 229.3,133.1 230.1,135.4 230.1,140.9 226.6,134.6 219.8,131.1 220.5,123.7 216.7,117.6"/>
    <line fill="none" stroke="#FFFFFF" stroke-width="7" stroke-miterlimit="10" x1="181" y1="49.1" x2="286.1" y2="49.1"/>
    <line fill="none" stroke="#FFFFFF" stroke-width="7" stroke-miterlimit="10" x1="233.6" y1="135.4" x2="233.6" y2="412.8"/>
  </g>
  <g id="Слой_5">
    <line fill="none" stroke="#FFFFFF" stroke-width="7" stroke-miterlimit="10" x1="148.1" y1="70.1" x2="72.2" y2="145.7"/>
    <polygon fill="#FFFFFF" points="82.2,154.1 61.5,151.5 69.8,143.2 82.2,140.7"/>
    <polygon fill="#FFFFFF" points="80.9,150.8 104.3,150.8 110.1,157.6 110.1,161.3 85.6,161.3 80.9,153.9"/>
    <polygon fill="#FFFFFF" points="110.1,157.7 133.5,157.7 139.4,164.5 139.4,168.2 114.8,168.2 110.1,161.3"/>
    <polygon fill="#FFFFFF" points="139.4,164.4 162.8,164.4 168.6,171.3 168.6,175 144.1,175 139.4,168.2"/>
    <polygon fill="#FFFFFF" points="155.8,81.3 152,81.3 132.4,80.8 152.3,60.8"/>
    <polygon fill="#FFFFFF" points="162.6,110.6 162.6,87.2 155.8,81.3 152,81.3 152.1,105.9 159.5,110.6"/>
    <polygon fill="#FFFFFF" points="170.1,139.8 170.1,116.4 162.6,110.6 159.5,110.6 159.6,135.1 167,139.8"/>
    <polygon fill="#FFFFFF" points="177.6,169 177.5,145.6 170.1,139.8 167,139.8 167,164.4 174.5,169"/>
    <polygon fill="#FFFFFF" points="183.4,178.5 177.6,164.4 167,160.3 162.8,164.4 160.2,175 179.2,182.5"/>
    <line fill="none" stroke="#FFFFFF" stroke-width="7" stroke-miterlimit="10" x1="180" y1="179" x2="217.3" y2="217.6"/>
  </g>
  <g id="Слой_7">
    <line fill="none" stroke="#FFFFFF" stroke-width="7" stroke-miterlimit="10" x1="135.1" y1="231.6" x2="413.2" y2="231.6"/>
    <polygon fill="#FFFFFF" points="60.9,186.7 66.9,190.5 69.6,197.2 78,196.7 80.6,198.2 82.3,195.6 79.5,194 76,187.3 68.5,187.9 62.5,184.2"/>
    <polygon fill="#FFFFFF" points="74.3,194 80.3,197.9 83,204.6 91.4,204.1 94,205.6 95.7,202.9 92.9,201.4 89.4,194.7 81.9,195.3 75.9,191.5"/>
    <polygon fill="#FFFFFF" points="52.4,182.3 53.3,182.9 56,189.6 64.4,189.1 67,190.6 68.7,188 65.9,186.4 62.4,179.7 54.9,180.3 52.4,179.1"/>
    <polygon fill="#FFFFFF" points="89.3,202.6 95.4,206.4 98.1,213.2 106.5,212.7 109,214.1 110.8,211.5 107.9,209.9 104.4,203.2 96.9,203.8 91,200.1"/>
    <polygon fill="#FFFFFF" points="103,210.3 109,214.1 111.7,220.9 120.1,220.4 122.7,221.8 124.4,219.2 121.6,217.6 118,210.9 110.7,211.5 104.6,207.8"/>
    <polygon fill="#FFFFFF" points="115.8,217.3 121.8,221.1 124.5,227.9 132.9,227.4 135.1,228.2 141.1,228.4 134.4,224.7 130.8,217.9 123.5,218.6 117.4,214.8"/>
    <polygon fill="#FFFFFF" points="60.9,276.6 66.9,272.8 69.6,266.1 78,266.6 80.6,265.1 82.3,267.7 79.5,269.3 75.9,276 68.5,275.4 62.5,279.1"/>
    <polygon fill="#FFFFFF" points="74.3,269.3 80.3,265.4 83,258.7 91.4,259.2 94,257.7 95.7,260.4 92.9,261.9 89.3,268.6 81.9,268 75.9,271.8"/>
    <polygon fill="#FFFFFF" points="52.3,281 53.3,280.4 56,273.7 64.4,274.2 67,272.7 68.7,275.3 65.9,276.9 62.3,283.6 54.9,283 52.3,284.2"/>
    <polygon fill="#FFFFFF" points="89.3,260.7 95.4,256.9 98,250.1 106.4,250.6 109,249.2 110.7,251.8 107.9,253.4 104.4,260.1 96.9,259.5 90.9,263.2"/>
    <polygon fill="#FFFFFF" points="103,253 109,249.2 111.7,242.4 120.1,242.9 122.7,241.5 124.4,244.1 121.5,245.7 118,252.4 110.7,251.8 104.6,255.5"/>
    <polygon fill="#FFFFFF" points="115.8,246 121.8,242.1 124.5,235.4 132.9,235.9 135.1,235.2 140.6,235.2 134.3,238.6 130.8,245.4 123.5,244.7 117.4,248.5"/>
    <line fill="none" stroke="#FFFFFF" stroke-width="7" stroke-miterlimit="10" x1="48.9" y1="284.2" x2="48.9" y2="179.1"/>
  </g>
  <g id="Слой_8">
    <line fill="none" stroke="#FFFFFF" stroke-width="7" stroke-miterlimit="10" x1="71.1" y1="321.7" x2="148.3" y2="395.8"/>
    <polygon fill="#FFFFFF" points="156.5,385.7 154.4,406.4 145.9,398.3 143.1,386"/>
    <polygon fill="#FFFFFF" points="153.3,387 152.7,363.6 159.4,357.6 163.1,357.6 163.7,382.1 156.4,387"/>
    <polygon fill="#FFFFFF" points="159.5,357.6 159,334.3 165.7,328.3 169.4,328.2 169.9,352.7 163.1,357.6"/>
    <polygon fill="#FFFFFF" points="165.6,328.3 165.1,304.9 171.8,298.9 175.5,298.8 176.1,323.4 169.4,328.2"/>
    <polygon fill="#FFFFFF" points="82.2,313.7 82.3,317.4 82.2,337.1 61.7,317.7"/>
    <polygon fill="#FFFFFF" points="111.3,306.2 87.9,306.8 82.2,313.7 82.3,317.4 106.9,316.8 111.3,309.3"/>
    <polygon fill="#FFFFFF" points="140.3,298.1 116.9,298.6 111.3,306.2 111.3,309.3 135.9,308.7 140.4,301.2"/>
    <polygon fill="#FFFFFF" points="169.4,290 146,290.5 140.3,298.1 140.4,301.2 165,300.6 169.5,293.1"/>
    <polygon fill="#FFFFFF" points="178.8,283.9 164.8,290.1 160.9,300.7 165.1,304.9 175.7,307.3 182.8,288.1"/>
    <line fill="none" stroke="#FFFFFF" stroke-width="7" stroke-miterlimit="10" x1="179.3" y1="287.3" x2="217.1" y2="249.2"/>
  </g>
  <g id="Слой_9">
    <line fill="none" stroke="#FFFFFF" stroke-width="7" stroke-miterlimit="10" x1="249.9" y1="249.2" x2="347.9" y2="348.6"/>
    <line fill="none" stroke="#FFFFFF" stroke-width="7" stroke-miterlimit="10" x1="349.1" y1="110.6" x2="259.6" y2="202.1"/>
    <polygon fill="#FFFFFF" points="250.4,220.1 269.1,201.6 264.1,197.1 258.1,201 245.3,216.1"/>
  </g>
  <circle fill="#FFFFFF" cx="234" cy="234" r="14.5"/>
</g>
</svg>
